HIERARCHY
ROOT Hips
{
	OFFSET 0.000000 0.000000 0.000000
	CHANNELS 6 Xposition Yposition Zposition Zrotation Yrotation Xrotation 
	JOINT LHipJoint
	{
		OFFSET 0.000000 0.000000 0.000000
		CHANNELS 3 Zrotation Yrotation Xrotation
		JOINT LeftUpLeg
		{
			OFFSET 1.363060 -1.794630 0.839290
			CHANNELS 3 Zrotation Yrotation Xrotation
			JOINT LeftLeg
			{
				OFFSET 2.448110 -6.726130 0.000000
				CHANNELS 3 Zrotation Yrotation Xrotation
				JOINT LeftFoot
				{
					OFFSET 2.562200 -7.039590 0.000000
					CHANNELS 3 Zrotation Yrotation Xrotation
					JOINT LeftToeBase
					{
						OFFSET 0.157640 -0.433110 2.322550
						CHANNELS 3 Zrotation Yrotation Xrotation
						End Site
						{
							OFFSET 0.000000 0.000000 0.000000
						}
					}
				}
			}
		}
	}
	JOINT RHipJoint
	{
		OFFSET 0.000000 0.000000 0.000000
		CHANNELS 3 Zrotation Yrotation Xrotation
		JOINT RightUpLeg
		{
			OFFSET -1.305520 -1.794630 0.839290
			CHANNELS 3 Zrotation Yrotation Xrotation
			JOINT RightLeg
			{
				OFFSET -2.542530 -6.985550 0.000000
				CHANNELS 3 Zrotation Yrotation Xrotation
				JOINT RightFoot
				{
					OFFSET -2.568260 -7.056230 0.000000
					CHANNELS 3 Zrotation Yrotation Xrotation
					JOINT RightToeBase
					{
						OFFSET -0.164730 -0.452590 2.363150
						CHANNELS 3 Zrotation Yrotation Xrotation
						End Site
						{
							OFFSET 0.000000 0.000000 0.000000
						}
					}
				}
			}
		}
	}
	JOINT LowerBack
	{
		OFFSET 0.000000 0.000000 0.000000
		CHANNELS 3 Zrotation Yrotation Xrotation
		JOINT Spine
		{
			OFFSET 0.028270 2.035590 -0.193380
			CHANNELS 3 Zrotation Yrotation Xrotation
			JOINT Spine1
			{
				OFFSET 0.056720 2.048850 -0.042750
				CHANNELS 3 Zrotation Yrotation Xrotation
				JOINT Neck
				{
					OFFSET 0.000000 0.000000 0.000000
					CHANNELS 3 Zrotation Yrotation Xrotation
					JOINT Neck1
					{
						OFFSET -0.054170 1.746240 0.172020
						CHANNELS 3 Zrotation Yrotation Xrotation
						JOINT Head
						{
							OFFSET 0.104070 1.761360 -0.123970
							CHANNELS 3 Zrotation Yrotation Xrotation
							End Site
							{
								OFFSET 0.000000 0.000000 0.000000
							}
						}
					}
				}
				JOINT LeftShoulder
				{
					OFFSET 0.000000 0.000000 0.000000
					CHANNELS 3 Zrotation Yrotation Xrotation
					JOINT LeftArm
					{
						OFFSET 3.362410 1.200890 -0.311210
						CHANNELS 3 Zrotation Yrotation Xrotation
						JOINT LeftForeArm
						{
							OFFSET 4.983000 -0.000000 -0.000000
							CHANNELS 3 Zrotation Yrotation Xrotation
							JOINT LeftHand
							{
								OFFSET 3.483560 -0.000000 -0.000000
								CHANNELS 3 Zrotation Yrotation Xrotation
								JOINT LeftFingerBase
								{
									OFFSET 0.000000 0.000000 0.000000
									CHANNELS 3 Zrotation Yrotation Xrotation
									JOINT LeftHandIndex1
									{
										OFFSET 0.715260 -0.000000 -0.000000
										CHANNELS 3 Zrotation Yrotation Xrotation
										End Site
										{
											OFFSET 0.000000 0.000000 0.000000
										}
									}
								}
								JOINT LThumb
								{
									OFFSET 0.000000 0.000000 0.000000
									CHANNELS 3 Zrotation Yrotation Xrotation
									End Site
									{
										OFFSET 0.000000 0.000000 0.000000
									}
								}
							}
						}
					}
				}
				JOINT RightShoulder
				{
					OFFSET 0.000000 0.000000 0.000000
					CHANNELS 3 Zrotation Yrotation Xrotation
					JOINT RightArm
					{
						OFFSET -3.136600 1.374050 -0.404650
						CHANNELS 3 Zrotation Yrotation Xrotation
						JOINT RightForeArm
						{
							OFFSET -5.241900 -0.000000 -0.000000
							CHANNELS 3 Zrotation Yrotation Xrotation
							JOINT RightHand
							{
								OFFSET -3.444170 -0.000000 -0.000000
								CHANNELS 3 Zrotation Yrotation Xrotation
								JOINT RightFingerBase
								{
									OFFSET 0.000000 0.000000 0.000000
									CHANNELS 3 Zrotation Yrotation Xrotation
									JOINT RightHandIndex1
									{
										OFFSET -0.622530 -0.000000 -0.000000
										CHANNELS 3 Zrotation Yrotation Xrotation
										End Site
										{
											OFFSET 0.000000 0.000000 0.000000
										}
									}
								}
								JOINT RThumb
								{
									OFFSET 0.000000 0.000000 0.000000
									CHANNELS 3 Zrotation Yrotation Xrotation
									End Site
									{
										OFFSET 0.000000 0.000000 0.000000
									}
								}
							}
						}
					}
				}
			}
		}
	}
}
MOTION
Frames: 4
Frame Time: 0.033333
-0.315898 16.756170 -0.315898 -6.674837 0.292343 3.069608 -3.588289 12.445260 2.731590 -9.377092 -4.484117 -11.240250 -3.848916 -13.855219 -37.512853 2.069833 20.654619 41.562589 0.000000 0.000000 0.000000 -2.337064 -4.191735 -17.448149 29.155086 -7.148436 12.190718 6.224889 -2.319249 4.243835 0.371755 10.332220 -30.999841 0.000000 0.000000 0.000000 -0.787227 -2.555553 18.037340 4.030719 0.003761 -5.096233 6.988796 -1.055140 1.168259 3.297990 -0.998521 -8.305460 -0.213531 -0.088855 0.765582 0.000000 0.000000 0.000000 10.786516 7.013669 9.776319 -72.757423 -11.902373 -8.834826 -159.290398 -86.583393 178.985418 11.375144 -11.970659 -0.527828 11.589351 -11.852583 0.000000 0.000000 0.000000 0.000000 0.000000 0.000000 0.000000 -7.235575 -7.541023 7.748907 64.991943 9.453518 16.848486 22.401237 69.852224 0.305602 -0.286491 11.072126 0.151075 -0.301111 11.075245 0.000000 0.000000 0.000000 0.000000 0.000000 0.000000 0.000000 
-0.293871 16.795100 -0.145707 -6.338762 -0.472337 3.384091 -3.337237 12.847014 2.669227 -10.127592 -4.358307 -11.105979 -3.912198 -13.434847 -36.764354 1.663332 19.731430 39.684932 0.000000 0.000000 0.000000 -2.183430 -5.351464 -16.757609 29.353337 -5.783256 10.785693 5.376412 -2.850382 7.398787 0.108348 11.242938 -31.792833 0.000000 0.000000 0.000000 -0.863449 -2.323484 17.683976 3.595372 0.106631 -4.868857 6.959305 -0.950428 1.122172 2.918458 -0.968351 -8.025302 0.015435 -0.086243 1.039918 0.000000 0.000000 0.000000 11.022747 7.087296 9.570143 -72.553852 -12.320053 -9.986681 -157.977309 -86.421651 178.931750 11.558451 -11.624954 -0.554887 11.772092 -11.504959 0.000000 0.000000 0.000000 0.000000 0.000000 0.000000 0.000000 -7.121254 -7.471648 7.616258 65.017804 9.446508 17.310252 21.852353 70.920799 0.318267 -0.348073 11.274975 0.157288 -0.363402 11.278132 0.000000 0.000000 0.000000 0.000000 0.000000 0.000000 0.000000 
-0.269615 16.835850 0.023915 -5.980715 -1.207430 3.726253 -3.108241 13.227506 2.565131 -10.899098 -4.248682 -10.990908 -3.985448 -12.999573 -35.914301 1.283080 18.767509 37.717285 0.000000 0.000000 0.000000 -1.958428 -6.445003 -15.984404 29.431284 -4.339474 9.285317 4.459270 -3.326386 10.471939 -0.130120 12.043533 -32.445182 0.000000 0.000000 0.000000 -0.969618 -2.102341 17.308012 3.184171 0.201219 -4.652806 6.926926 -0.854722 1.062603 2.543678 -0.937413 -7.749352 0.234295 -0.086337 1.315618 0.000000 0.000000 0.000000 11.257633 7.156666 9.349793 -72.341615 -12.726120 -11.112685 -156.673214 -86.296871 178.879853 11.717499 -11.270174 -0.581018 11.930052 -11.148731 0.000000 0.000000 0.000000 0.000000 0.000000 0.000000 0.000000 -7.014125 -7.404529 7.483053 65.042524 9.437670 17.761677 21.276431 71.973815 0.330730 -0.415186 11.473860 0.163393 -0.431288 11.477036 0.000000 0.000000 0.000000 0.000000 0.000000 0.000000 0.000000 
-0.243185 16.877971 0.192569 -5.604695 -1.901587 4.090735 -2.899687 13.586301 2.420604 -11.687671 -4.158766 -10.896329 -4.072573 -12.549887 -34.960911 0.932874 17.767211 35.667856 0.000000 0.000000 0.000000 -1.674840 -7.458211 -15.140130 29.381741 -2.842480 7.710236 3.508182 -3.739164 13.422684 -0.338734 12.731147 -32.958386 0.000000 0.000000 0.000000 -1.099613 -1.896539 16.913584 2.796961 0.284282 -4.446976 6.891919 -0.770979 0.989452 2.173894 -0.905678 -7.477280 0.442984 -0.088954 1.591529 0.000000 0.000000 0.000000 11.490945 7.220323 9.114919 -72.120376 -13.120595 -12.209939 -155.375457 -86.209726 178.829877 11.852518 -10.907657 -0.606148 12.063501 -10.785221 0.000000 0.000000 0.000000 0.000000 0.000000 0.000000 0.000000 -6.913985 -7.341047 7.349065 65.066177 9.427199 18.201242 20.674686 73.010606 0.342947 -0.487878 11.668478 0.169368 -0.504819 11.671650 0.000000 0.000000 0.000000 0.000000 0.000000 0.000000 0.000000 
